<svg width="1024" height="1024" viewBox="0 0 1024 1024" fill="none" xmlns="http://www.w3.org/2000/svg">
  <defs>
    <linearGradient id="bg" x1="164" y1="128" x2="846" y2="896" gradientUnits="userSpaceOnUse">
      <stop offset="0" stop-color="#8789F7"/>
      <stop offset="0.58" stop-color="#5B5CE2"/>
      <stop offset="1" stop-color="#4B4DCC"/>
    </linearGradient>
    <linearGradient id="line" x1="364" y1="614" x2="670" y2="420" gradientUnits="userSpaceOnUse">
      <stop offset="0" stop-color="#FFFFFF"/>
      <stop offset="1" stop-color="#E8ECFF"/>
    </linearGradient>
    <filter id="shadow" x="52" y="60" width="920" height="920" filterUnits="userSpaceOnUse" color-interpolation-filters="sRGB">
      <feFlood flood-opacity="0" result="BackgroundImageFix"/>
      <feColorMatrix in="SourceAlpha" type="matrix" values="0 0 0 0 0 0 0 0 0 0 0 0 0 0 0 0 0 0 127 0" result="hardAlpha"/>
      <feOffset dy="28"/>
      <feGaussianBlur stdDeviation="22"/>
      <feColorMatrix type="matrix" values="0 0 0 0 0.1176 0 0 0 0 0.1529 0 0 0 0 0.2902 0 0 0 0.24 0"/>
      <feBlend mode="normal" in2="BackgroundImageFix" result="effect1_dropShadow_0_1"/>
      <feBlend mode="normal" in="SourceGraphic" in2="effect1_dropShadow_0_1" result="shape"/>
    </filter>
  </defs>

  <g filter="url(#shadow)">
    <rect x="96" y="96" width="832" height="832" rx="220" fill="url(#bg)"/>
    <rect x="144" y="144" width="736" height="736" rx="184" stroke="white" stroke-opacity="0.16" stroke-width="4"/>
    <path d="M128 320C203 205 346 144 512 144C670 144 812 206 896 320V228C896 172 850 128 794 128H230C174 128 128 172 128 228V320Z" fill="white" fill-opacity="0.08"/>
  </g>

  <path d="M512 258C603 258 678 286 736 334V530C736 669 634 788 512 840C390 788 288 669 288 530V334C346 286 421 258 512 258Z" stroke="white" stroke-width="30" stroke-linejoin="round"/>
  <path d="M374 602L448 528L526 580L650 454" stroke="url(#line)" stroke-width="34" stroke-linecap="round" stroke-linejoin="round"/>
  <path d="M620 452H684V516" stroke="url(#line)" stroke-width="34" stroke-linecap="round" stroke-linejoin="round"/>
  <circle cx="374" cy="602" r="36" fill="white"/>
  <circle cx="448" cy="528" r="28" fill="#E5E9FF"/>
  <circle cx="526" cy="580" r="28" fill="#E5E9FF"/>
  <circle cx="650" cy="454" r="26" fill="white"/>
  <path d="M402 420C432 393 469 380 512 380C560 380 600 398 636 432" stroke="white" stroke-opacity="0.86" stroke-width="18" stroke-linecap="round"/>
  <circle cx="388" cy="434" r="11" fill="white"/>
  <circle cx="650" cy="442" r="11" fill="white"/>
  <path d="M446 670H578" stroke="white" stroke-opacity="0.22" stroke-width="18" stroke-linecap="round"/>
  <path d="M470 710H554" stroke="white" stroke-opacity="0.16" stroke-width="16" stroke-linecap="round"/>
</svg>
